HIERARCHY
ROOT Hips
{
	OFFSET 0.000000 0.000000 0.000000
	CHANNELS 6 Xposition Yposition Zposition Zrotation Yrotation Xrotation 
	JOINT LHipJoint
	{
		OFFSET 0.000000 0.000000 0.000000
		CHANNELS 3 Zrotation Yrotation Xrotation
		JOINT LeftUpLeg
		{
			OFFSET 1.363060 -1.794630 0.839290
			CHANNELS 3 Zrotation Yrotation Xrotation
			JOINT LeftLeg
			{
				OFFSET 2.448110 -6.726130 0.000000
				CHANNELS 3 Zrotation Yrotation Xrotation
				JOINT LeftFoot
				{
					OFFSET 2.562200 -7.039590 0.000000
					CHANNELS 3 Zrotation Yrotation Xrotation
					JOINT LeftToeBase
					{
						OFFSET 0.157640 -0.433110 2.322550
						CHANNELS 3 Zrotation Yrotation Xrotation
						End Site
						{
							OFFSET 0.000000 0.000000 0.000000
						}
					}
				}
			}
		}
	}
	JOINT RHipJoint
	{
		OFFSET 0.000000 0.000000 0.000000
		CHANNELS 3 Zrotation Yrotation Xrotation
		JOINT RightUpLeg
		{
			OFFSET -1.305520 -1.794630 0.839290
			CHANNELS 3 Zrotation Yrotation Xrotation
			JOINT RightLeg
			{
				OFFSET -2.542530 -6.985550 0.000000
				CHANNELS 3 Zrotation Yrotation Xrotation
				JOINT RightFoot
				{
					OFFSET -2.568260 -7.056230 0.000000
					CHANNELS 3 Zrotation Yrotation Xrotation
					JOINT RightToeBase
					{
						OFFSET -0.164730 -0.452590 2.363150
						CHANNELS 3 Zrotation Yrotation Xrotation
						End Site
						{
							OFFSET 0.000000 0.000000 0.000000
						}
					}
				}
			}
		}
	}
	JOINT LowerBack
	{
		OFFSET 0.000000 0.000000 0.000000
		CHANNELS 3 Zrotation Yrotation Xrotation
		JOINT Spine
		{
			OFFSET 0.028270 2.035590 -0.193380
			CHANNELS 3 Zrotation Yrotation Xrotation
			JOINT Spine1
			{
				OFFSET 0.056720 2.048850 -0.042750
				CHANNELS 3 Zrotation Yrotation Xrotation
				JOINT Neck
				{
					OFFSET 0.000000 0.000000 0.000000
					CHANNELS 3 Zrotation Yrotation Xrotation
					JOINT Neck1
					{
						OFFSET -0.054170 1.746240 0.172020
						CHANNELS 3 Zrotation Yrotation Xrotation
						JOINT Head
						{
							OFFSET 0.104070 1.761360 -0.123970
							CHANNELS 3 Zrotation Yrotation Xrotation
							End Site
							{
								OFFSET 0.000000 0.000000 0.000000
							}
						}
					}
				}
				JOINT LeftShoulder
				{
					OFFSET 0.000000 0.000000 0.000000
					CHANNELS 3 Zrotation Yrotation Xrotation
					JOINT LeftArm
					{
						OFFSET 3.362410 1.200890 -0.311210
						CHANNELS 3 Zrotation Yrotation Xrotation
						JOINT LeftForeArm
						{
							OFFSET 4.983000 -0.000000 -0.000000
							CHANNELS 3 Zrotation Yrotation Xrotation
							JOINT LeftHand
							{
								OFFSET 3.483560 -0.000000 -0.000000
								CHANNELS 3 Zrotation Yrotation Xrotation
								JOINT LeftFingerBase
								{
									OFFSET 0.000000 0.000000 0.000000
									CHANNELS 3 Zrotation Yrotation Xrotation
									JOINT LeftHandIndex1
									{
										OFFSET 0.715260 -0.000000 -0.000000
										CHANNELS 3 Zrotation Yrotation Xrotation
										End Site
										{
											OFFSET 0.000000 0.000000 0.000000
										}
									}
								}
								JOINT LThumb
								{
									OFFSET 0.000000 0.000000 0.000000
									CHANNELS 3 Zrotation Yrotation Xrotation
									End Site
									{
										OFFSET 0.000000 0.000000 0.000000
									}
								}
							}
						}
					}
				}
				JOINT RightShoulder
				{
					OFFSET 0.000000 0.000000 0.000000
					CHANNELS 3 Zrotation Yrotation Xrotation
					JOINT RightArm
					{
						OFFSET -3.136600 1.374050 -0.404650
						CHANNELS 3 Zrotation Yrotation Xrotation
						JOINT RightForeArm
						{
							OFFSET -5.241900 -0.000000 -0.000000
							CHANNELS 3 Zrotation Yrotation Xrotation
							JOINT RightHand
							{
								OFFSET -3.444170 -0.000000 -0.000000
								CHANNELS 3 Zrotation Yrotation Xrotation
								JOINT RightFingerBase
								{
									OFFSET 0.000000 0.000000 0.000000
									CHANNELS 3 Zrotation Yrotation Xrotation
									JOINT RightHandIndex1
									{
										OFFSET -0.622530 -0.000000 -0.000000
										CHANNELS 3 Zrotation Yrotation Xrotation
										End Site
										{
											OFFSET 0.000000 0.000000 0.000000
										}
									}
								}
								JOINT RThumb
								{
									OFFSET 0.000000 0.000000 0.000000
									CHANNELS 3 Zrotation Yrotation Xrotation
									End Site
									{
										OFFSET 0.000000 0.000000 0.000000
									}
								}
							}
						}
					}
				}
			}
		}
	}
}
MOTION
Frames: 11
Frame Time: 0.008333
0.792960 16.700541 -3.271516 84.239202 -76.418057 -85.452246 -2.776257 -4.473522 2.959612 -2.560113 -15.613001 -111.812598 -5.899043 -3.242449 -4.981614 0.131463 4.432608 8.998614 2.729099 -0.000000 -46.014600 12.934788 4.718197 -9.941790 -5.570828 -7.134404 -5.066756 0.649106 -3.375234 35.257747 -1.707560 -5.967874 -16.852933 0.907300 -0.000000 -57.040000 -12.148617 1.230264 12.624084 -3.191059 1.698302 -1.759191 -6.933320 1.602309 -3.140130 10.765032 7.156535 0.760875 -4.740458 -0.395575 1.777833 0.000000 0.000000 0.000000 -5.268817 -3.181987 2.812814 -66.033303 -2.153461 5.992498 -3.209024 -24.563181 -0.000413 6.794151 -1.994952 -0.119804 -0.032447 0.018016 -0.000000 0.000000 0.000000 0.000000 0.000000 0.000000 0.000000 20.789909 9.206600 2.335401 71.253543 7.412433 -6.016630 3.083678 1.742638 0.007530 -0.900882 8.057519 -0.067914 0.058166 -0.076451 0.000000 0.000000 0.000000 0.000000 0.000000 0.000000 0.000000 
0.791221 16.688614 -3.261868 85.485772 -76.421186 -86.995281 -2.913189 -4.510908 2.949589 -1.811512 -15.175673 -111.307205 -5.525749 -2.458005 -1.511658 0.185074 5.199722 11.672490 3.229600 0.000000 -48.596300 13.050488 4.670731 -9.795319 -5.718050 -7.054188 -5.058348 0.647834 -3.399117 35.550163 -1.669223 -5.768884 -16.966614 0.899099 -0.000000 -57.089500 -12.197682 1.201129 12.361814 -3.197717 1.684413 -1.780276 -6.938160 1.591294 -3.026380 10.746288 6.868571 0.554478 -4.730817 -0.394098 1.728814 0.000000 0.000000 0.000000 -5.371684 -2.340348 2.714441 -66.364202 -2.111084 5.611594 -3.180574 -25.051509 -0.000242 6.780308 -2.048828 -0.122705 -0.032094 0.016741 -0.000000 0.000000 0.000000 0.000000 0.000000 0.000000 0.000000 20.721607 9.031320 2.243002 71.597293 7.549147 -6.131222 3.100449 1.836058 0.007723 -0.481826 7.773547 -0.036713 0.057516 -0.074890 0.000000 0.000000 0.000000 0.000000 0.000000 0.000000 0.000000 
0.790878 16.677314 -3.254942 86.716792 -76.370941 -88.639246 -3.033824 -4.538569 2.776203 -1.726659 -14.953652 -110.549952 -5.173244 -1.620568 2.252723 0.120659 5.290208 14.903969 3.498100 0.000001 -49.830900 13.187399 4.615649 -9.626019 -5.924343 -6.953270 -4.911292 0.636803 -3.421049 35.781675 -1.635556 -5.598389 -17.058495 0.889900 0.000000 -57.114000 -12.302188 1.172435 12.223192 -3.216628 1.669153 -1.780824 -6.950197 1.580083 -2.935378 10.741347 6.536795 0.330364 -4.725349 -0.392586 1.673466 0.000000 0.000000 0.000000 -5.436611 -1.605900 2.630243 -66.634281 -1.974565 5.494493 -3.163483 -25.618046 0.000074 6.575891 -2.105850 -0.122101 -0.032316 0.014919 -0.000000 0.000000 0.000000 0.000000 0.000000 0.000000 0.000000 20.698718 8.820987 2.166884 71.939632 7.714309 -6.301709 3.099372 1.944843 0.007844 -0.202316 7.670350 -0.017211 0.056427 -0.074568 0.000000 0.000000 0.000000 0.000000 0.000000 0.000000 0.000000 
0.791993 16.667217 -3.250139 87.906795 -76.277267 -90.327185 -3.125163 -4.587563 2.486277 -1.977264 -14.786948 -109.407498 -4.781547 -0.845522 5.853898 0.034085 5.033814 18.361825 3.563000 -0.000000 -49.391900 13.327525 4.553530 -9.446695 -6.157008 -6.816384 -4.637970 0.617640 -3.441338 35.942771 -1.610575 -5.475971 -17.127487 0.882500 -0.000001 -57.086799 -12.444921 1.147204 12.182324 -3.245232 1.654968 -1.765795 -6.967745 1.570418 -2.873304 10.747718 6.196131 0.109980 -4.723572 -0.391254 1.617933 0.000000 0.000000 0.000000 -5.473454 -1.008064 2.562742 -66.846874 -1.740472 5.583792 -3.156760 -26.222276 0.000491 6.190068 -2.173825 -0.118595 -0.032847 0.012645 -0.000000 0.000000 0.000000 0.000000 0.000000 0.000000 0.000000 20.713271 8.608045 2.107176 72.274884 7.861953 -6.607057 3.081211 2.076428 0.007922 -0.057155 7.759971 -0.007305 0.054901 -0.075537 0.000000 0.000000 0.000000 0.000000 0.000000 0.000000 0.000000 
0.794132 16.658868 -3.246200 89.023585 -76.162740 -91.980445 -3.189331 -4.658474 2.132743 -2.374860 -14.631026 -107.889137 -4.358115 -0.199338 9.093771 -0.019306 4.626991 21.654684 3.461500 0.000000 -47.663600 13.452616 4.482580 -9.265475 -6.372158 -6.634512 -4.277084 0.593375 -3.458704 36.030658 -1.597693 -5.417898 -17.174689 0.879701 0.000000 -56.986201 -12.595411 1.124556 12.201513 -3.278163 1.640780 -1.740213 -6.990261 1.560908 -2.830301 10.758011 5.830355 -0.107419 -4.725923 -0.390192 1.562765 0.000000 0.000000 0.000000 -5.494404 -0.538658 2.507536 -67.011226 -1.443493 5.830827 -3.159560 -26.810155 0.000962 5.641617 -2.257082 -0.112087 -0.033507 0.009984 -0.000000 0.000000 0.000000 0.000000 0.000000 0.000000 0.000000 20.758220 8.368170 2.059904 72.589461 8.000568 -6.959657 3.049849 2.230971 0.007961 -0.055633 8.030313 -0.007398 0.053245 -0.077596 0.000000 0.000000 0.000000 0.000000 0.000000 0.000000 0.000000 
0.794846 16.656776 -3.231024 92.884301 -76.088419 -96.043203 -3.292808 -4.819064 1.799490 -2.606186 -13.751359 -106.615956 -3.912501 0.357025 12.219679 -0.028689 4.001552 24.329206 3.131300 -0.000000 -45.739500 13.489913 4.302147 -8.816800 -6.102411 -5.361560 -4.477290 0.566832 -3.496400 36.352565 -1.659111 -5.728532 -17.326475 0.934200 -0.000000 -56.408400 -12.600223 1.238490 11.875311 -3.284436 1.779290 -1.785192 -7.016415 1.696514 -2.781624 10.690590 5.473998 -0.340306 -4.733575 -0.390481 1.508672 0.000000 0.000000 0.000000 -5.723856 0.013581 2.420171 -67.100200 -1.105002 6.208584 -3.155428 -27.376371 0.001495 4.958119 -2.353122 -0.102486 -0.033317 0.005738 -0.000000 0.000000 0.000000 0.000000 0.000000 0.000000 0.000000 20.759804 8.237823 2.032941 72.786858 8.079287 -7.365768 3.024862 2.422125 0.008072 -0.172667 8.456287 -0.016388 0.052350 -0.081828 0.000000 0.000000 0.000000 0.000000 0.000000 0.000000 0.000000 
0.797643 16.653504 -3.226216 93.712614 -75.967621 -97.350615 -3.332498 -4.895075 1.457287 -2.989154 -13.673290 -104.608260 -3.502446 0.717206 14.683493 0.036198 3.813246 26.582957 3.002301 0.000000 -43.884500 13.555130 4.216045 -8.639423 -6.210261 -5.118706 -4.097828 0.540364 -3.501591 36.317407 -1.671480 -5.801973 -17.336230 0.943400 -0.000000 -56.138200 -12.697447 1.208515 11.896106 -3.311612 1.753210 -1.761627 -7.044645 1.674048 -2.765542 10.696656 5.102187 -0.527676 -4.742417 -0.390171 1.462834 0.000000 0.000000 0.000000 -5.739099 0.246723 2.386199 -67.201337 -0.741195 6.630578 -3.175083 -27.800203 0.001904 4.180821 -2.462428 -0.090380 -0.033925 0.002627 -0.000000 0.000000 0.000000 0.000000 0.000000 0.000000 0.000000 20.834866 7.967182 1.999637 73.041723 8.135524 -7.820119 2.978017 2.636046 0.007987 -0.412876 9.001403 -0.036479 0.050874 -0.085330 0.000000 0.000000 0.000000 0.000000 0.000000 0.000000 0.000000 
0.799902 16.653214 -3.219937 94.409502 -75.881910 -98.456891 -3.380663 -4.954534 1.155503 -3.361505 -13.678422 -102.534349 -3.122146 0.984123 16.950949 0.143859 3.852527 28.190584 2.979700 0.000000 -42.869300 13.589616 4.121680 -8.459864 -6.239591 -4.854748 -3.764518 0.515248 -3.498033 36.229517 -1.695072 -5.933176 -17.326916 0.957800 0.000000 -55.795500 -12.738441 1.170118 11.878553 -3.329074 1.717424 -1.745946 -7.073803 1.641076 -2.753656 10.694916 4.735077 -0.697474 -4.753494 -0.390239 1.423036 0.000000 0.000000 0.000000 -5.755396 0.391672 2.359300 -67.293079 -0.377604 7.082949 -3.201932 -28.088595 0.002225 3.346084 -2.567825 -0.075476 -0.034471 -0.000579 -0.000000 0.000000 0.000000 0.000000 0.000000 0.000000 0.000000 20.910763 7.682335 1.967863 73.262830 8.139655 -8.294872 2.929006 2.880279 0.007812 -0.746152 9.615181 -0.067171 0.049729 -0.089078 0.000000 0.000000 0.000000 0.000000 0.000000 0.000000 0.000000 
0.800978 16.656073 -3.211892 95.014411 -75.840055 -99.395331 -3.444981 -4.992031 0.892807 -3.776081 -13.765071 -100.484909 -2.773666 1.196157 19.190053 0.276988 4.103692 29.147542 3.071900 0.000001 -42.589700 13.594377 4.016259 -8.272197 -6.184682 -4.571254 -3.490301 0.492776 -3.485037 36.092196 -1.727961 -6.112024 -17.297382 0.976000 0.000001 -55.397200 -12.716120 1.122299 11.813877 -3.334658 1.671583 -1.738959 -7.102557 1.597334 -2.739793 10.683920 4.375876 -0.851589 -4.765909 -0.390614 1.388903 0.000000 0.000000 0.000000 -5.770215 0.478021 2.336795 -67.389449 -0.038417 7.538813 -3.235171 -28.214778 0.002433 2.493338 -2.651196 -0.058074 -0.035022 -0.003759 -0.000000 0.000000 0.000000 0.000000 0.000000 0.000000 0.000000 20.980626 7.386035 1.934639 73.450694 8.091420 -8.774116 2.880998 3.152025 0.007549 -1.148784 10.244209 -0.107964 0.049017 -0.092784 0.000000 0.000000 0.000000 0.000000 0.000000 0.000000 0.000000 
0.800358 16.662077 -3.202037 95.569627 -75.840265 -100.213421 -3.527200 -5.009830 0.664990 -4.245422 -13.909549 -98.491829 -2.448818 1.374827 21.476413 0.430400 4.576013 29.581224 3.291200 0.000000 -43.283600 13.573684 3.899767 -8.073159 -6.056726 -4.273774 -3.275545 0.473554 -3.462867 35.907866 -1.766595 -6.320273 -17.245409 0.995200 -0.000001 -54.971000 -12.635635 1.065456 11.700142 -3.328843 1.616428 -1.740364 -7.129503 1.543695 -2.720479 10.664239 4.027563 -0.992046 -4.778708 -0.391220 1.359821 0.000000 0.000000 0.000000 -5.778081 0.528002 2.316678 -67.502479 0.266031 7.970881 -3.273592 -28.167800 0.002521 1.657520 -2.690637 -0.039374 -0.035644 -0.006811 -0.000000 0.000000 0.000000 0.000000 0.000000 0.000000 0.000000 21.040429 7.083296 1.898522 73.609803 7.990985 -9.253199 2.836090 3.447118 0.007214 -1.593245 10.837512 -0.156758 0.048765 -0.096223 0.000000 0.000000 0.000000 0.000000 0.000000 0.000000 0.000000 
0.797518 16.670994 -3.190404 96.139288 -75.879078 -100.990595 -3.628263 -5.013476 0.459133 -4.799636 -14.069767 -96.564071 -2.143353 1.537208 23.877566 0.595219 5.204711 29.585454 3.594100 0.000000 -44.570400 13.530204 3.770454 -7.860229 -5.861954 -3.960378 -3.105002 0.458406 -3.432477 35.675643 -1.808013 -6.542395 -17.169515 1.012800 -0.000000 -54.539900 -12.502426 1.001821 11.544273 -3.312164 1.554395 -1.747683 -7.152920 1.482886 -2.690997 10.635484 3.689172 -1.124778 -4.790585 -0.391909 1.333987 0.000000 0.000000 0.000000 -5.773403 0.575030 2.296437 -67.642589 0.515494 8.364811 -3.316190 -27.938259 0.002486 0.869220 -2.666407 -0.020678 -0.036441 -0.009593 -0.000000 0.000000 0.000000 0.000000 0.000000 0.000000 0.000000 21.084469 6.777842 1.857839 73.745005 7.845393 -9.724947 2.796382 3.760200 0.006840 -2.050621 11.350453 -0.210054 0.048986 -0.099227 0.000000 0.000000 0.000000 0.000000 0.000000 0.000000 0.000000 
